<svg width="156" height="23" viewBox="0 0 156 23" fill="none" xmlns="http://www.w3.org/2000/svg">
<path d="M48.3355 21.0478L47.6779 21.0553C47.3513 21.0585 47.0627 20.8401 46.9739 20.5212C46.7583 19.7442 46.3566 18.2961 46.086 17.319C45.9972 16.9979 46.0077 16.6683 46.1018 16.3654C40.515 14.8221 37.5911 8.40263 36.8279 6.48044C33.4134 5.68737 29.7115 5.07946 25.7833 5.46476C14.1552 6.60459 12.1055 21.722 1.87488 17.3586C1.6994 17.2837 1.17931 16.9187 0.846324 16.6779C0.667674 16.5495 0.429826 16.5441 0.245891 16.6651C-0.0162696 16.8363 -0.0807527 17.1991 0.110582 17.4496C0.600019 18.0906 1.86748 19.2134 5.02821 20.0428C10.782 21.554 16.7631 13.9113 18.7081 14.3404C20.742 14.7889 21.2357 18.4395 21.7558 20.8562C21.9746 21.8762 22.8657 22.6029 23.8964 22.6029H26.5529C26.9831 22.6029 27.3309 22.2465 27.3246 21.8098C27.3182 21.3828 26.9747 21.0392 26.5529 21.0392H25.9419C25.5307 21.0392 25.3065 20.7224 25.2463 20.2676C25.2463 20.2676 25.0708 16.9016 26.0719 16.1727C27.3827 15.2181 31.6523 17.5833 35.7179 17.0878C36.0921 17.0418 36.4463 17.2708 36.5647 17.6326L37.6302 20.8776C37.9685 21.9083 38.9209 22.6029 39.9928 22.6029H42.4347C42.8703 22.6029 43.2191 22.239 43.2064 21.7991C43.1948 21.3763 42.8523 21.0403 42.4347 21.0403H41.699C41.2582 21.0403 40.8745 20.731 40.7825 20.2943C40.5563 19.223 40.2603 17.0985 41.6525 17.0985C43.0447 17.0985 43.5309 19.6168 44.1071 21.2394C44.3978 22.0581 45.1642 22.6039 46.0236 22.6039H48.346C48.7699 22.6039 49.1135 22.2561 49.1135 21.8269C49.1135 21.3945 48.7646 21.0446 48.3376 21.0499L48.3355 21.0478Z" fill="white"/>
<path d="M63.545 16.7764C61.62 14.0729 54.2658 8.76332 50.8672 8.62205C50.6547 8.61348 50.4634 8.48826 50.3535 8.30311C50.011 7.72731 49.2023 6.60888 48.2361 6.89999C47.2382 7.20181 47.5152 7.93922 47.7995 8.38338C47.8978 8.53643 47.7868 8.7387 47.6071 8.73121C45.7265 8.65736 43.662 8.19394 41.4358 7.63312C41.8977 8.58352 44.216 13.0561 47.8281 14.8488C52.9053 12.5274 60.8367 16.6929 62.6866 17.7385C62.9277 17.8745 63.2247 17.8434 63.434 17.6626C63.6909 17.4399 63.7427 17.0536 63.545 16.7764ZM52.4402 12.1871C51.9169 12.1871 51.493 11.7579 51.493 11.2281C51.493 10.6984 51.9169 10.2692 52.4402 10.2692C52.9634 10.2692 53.3873 10.6984 53.3873 11.2281C53.3873 11.7579 52.9634 12.1871 52.4402 12.1871Z" fill="white"/>
<path d="M75.2006 17.6144V7.97345H72.117V5.38449H73.9807C74.8623 5.38449 75.3359 4.90822 75.3359 4.02205V0H78.0473V5.38235H81.5041V7.97131H78.0822V18.8741C78.0822 19.6233 78.3867 19.8962 79.133 19.8962H82.0146V22.4851H80.3212C76.8645 22.4851 75.2038 20.6454 75.2038 17.6133L75.2016 17.6154L75.2006 17.6144Z" fill="white"/>
<path d="M92.7907 5.3824V7.97136H87.1997V22.4841H84.2853V8.65419C84.2853 6.54149 85.4386 5.38454 87.4376 5.38454L87.4355 5.3824H92.7907Z" fill="white"/>
<path d="M93.5032 17.715C93.5032 14.7162 95.5698 12.8432 99.535 12.5703L103.873 12.2642C104.687 12.1968 105.093 11.8564 105.093 10.7316C105.093 8.31277 103.297 7.39235 101.093 7.39235C98.5847 7.39235 97.0931 8.58462 96.8225 10.7316H93.9757C94.4842 6.84865 97.0593 4.87081 101.161 4.87081C105.262 4.87081 108.074 6.98351 108.074 11.7879V19.8973H109.429V22.4863H108.175C106.481 22.4863 105.497 21.4299 105.497 19.4874V19.2498C104.481 21.6354 102.312 22.9978 99.3955 22.9978C95.6671 22.9978 93.4979 20.7492 93.4979 17.7172L93.5022 17.715H93.5032ZM105.196 14.378L99.9082 14.7183C97.4346 14.8885 96.4863 15.8774 96.4863 17.5802C96.4863 19.5901 97.7739 20.5095 99.8088 20.5095C102.892 20.5095 105.198 18.3968 105.198 14.957H105.196V14.378Z" fill="white"/>
<path d="M111.024 13.9349C111.024 8.44978 114.346 4.8719 119.259 4.8719C123.429 4.8719 126.41 7.46086 126.953 11.789H124.039C123.665 9.16579 121.735 7.463 119.227 7.463C116.143 7.463 114.042 10.0188 114.042 13.937C114.042 17.8552 116.176 20.411 119.262 20.411C121.769 20.411 123.872 18.674 124.243 15.9823H127.124C126.651 20.3436 123.464 23 119.262 23C114.348 23 111.026 19.4221 111.026 13.937L111.024 13.9349Z" fill="white"/>
<path d="M128.92 13.9691C128.92 8.51828 132.073 4.8719 137.09 4.8719C142.107 4.8719 145.427 8.82437 144.714 14.7857H131.903C132.073 18.3283 133.971 20.4763 137.156 20.4763C139.834 20.4763 141.189 18.9095 141.597 17.6476H144.511C143.731 20.6465 141.258 22.9979 137.156 22.9979C132.106 22.9979 128.92 19.4553 128.92 13.9702V13.9691ZM141.798 12.4354C141.9 9.6763 140.205 7.35812 136.952 7.35812C134.207 7.35812 132.309 9.30064 131.971 12.4354H141.799H141.798Z" fill="white"/>
<path d="M150.645 5.3824H156V7.97136H150.409V22.4841H147.496V8.65419C147.496 6.54149 148.648 5.38454 150.648 5.38454L150.646 5.3824H150.645Z" fill="white"/>
</svg>
